<svg width="59" height="60" viewBox="0 0 59 60" fill="none" xmlns="http://www.w3.org/2000/svg">
<rect width="25" height="25" rx="5" transform="matrix(-4.37114e-08 1 1 4.37114e-08 17 17.1837)" fill="url(#paint0_linear)"/>
<g filter="url(#filter0_f)">
<rect width="19" height="19" rx="5" transform="matrix(-4.37114e-08 1 1 4.37114e-08 20 20.1837)" fill="#21CC14"/>
</g>
<rect x="17.5" y="39.6837" width="24" height="24" rx="4.5" transform="rotate(-90 17.5 39.6837)" fill="url(#paint1_linear)" stroke="#21CC14"/>
<g filter="url(#filter1_d)">
<path fill-rule="evenodd" clip-rule="evenodd" d="M31 21.1837H28V26.1837H23V29.1837H28V34.1837H31V29.1837H36V26.1837H31V21.1837Z" fill="url(#paint2_linear)"/>
</g>
<defs>
<filter id="filter0_f" x="0" y="0.183716" width="59" height="59" filterUnits="userSpaceOnUse" color-interpolation-filters="sRGB">
<feFlood flood-opacity="0" result="BackgroundImageFix"/>
<feBlend mode="normal" in="SourceGraphic" in2="BackgroundImageFix" result="shape"/>
<feGaussianBlur stdDeviation="10" result="effect1_foregroundBlur"/>
</filter>
<filter id="filter1_d" x="21" y="20.1837" width="17" height="17" filterUnits="userSpaceOnUse" color-interpolation-filters="sRGB">
<feFlood flood-opacity="0" result="BackgroundImageFix"/>
<feColorMatrix in="SourceAlpha" type="matrix" values="0 0 0 0 0 0 0 0 0 0 0 0 0 0 0 0 0 0 127 0" result="hardAlpha"/>
<feOffset dy="1"/>
<feGaussianBlur stdDeviation="1"/>
<feColorMatrix type="matrix" values="0 0 0 0 0 0 0 0 0 0 0 0 0 0 0 0 0 0 0.3 0"/>
<feBlend mode="normal" in2="BackgroundImageFix" result="effect1_dropShadow"/>
<feBlend mode="normal" in="SourceGraphic" in2="effect1_dropShadow" result="shape"/>
</filter>
<linearGradient id="paint0_linear" x1="2.27273" y1="12.5" x2="25" y2="12.5" gradientUnits="userSpaceOnUse">
<stop stop-color="#30C325"/>
<stop offset="1" stop-color="#2C812A"/>
</linearGradient>
<linearGradient id="paint1_linear" x1="19.2727" y1="52.6837" x2="42" y2="52.6837" gradientUnits="userSpaceOnUse">
<stop stop-color="#30C325"/>
<stop offset="1" stop-color="#2C812A"/>
</linearGradient>
<linearGradient id="paint2_linear" x1="29.5" y1="21.1837" x2="29.5" y2="34.1837" gradientUnits="userSpaceOnUse">
<stop stop-color="#B1FFAF"/>
<stop offset="1" stop-color="white"/>
</linearGradient>
</defs>
</svg>
